<svg id="eT8tuZH07LN1" xmlns="http://www.w3.org/2000/svg" xmlns:xlink="http://www.w3.org/1999/xlink" viewBox="0 0 300 300" shape-rendering="geometricPrecision" text-rendering="geometricPrecision" project-id="2ba08a50b0fc49799a6d73dd48a2dfe1" export-id="3fd92ed6c1a544819163acc68de6815b" cached="false"><path d="" fill="none" stroke="#3f5787" stroke-width="0.6"/><rect width="20" height="91.000492" rx="0" ry="0" transform="translate(109.045309 81.999509)" fill="#f7b538" stroke-width="0"/><rect width="20" height="68.838463" rx="0" ry="0" transform="translate(130.423542 104.161538)" fill="#d8572a" stroke-width="0"/><rect width="20" height="68.838463" rx="0" ry="0" transform="translate(172.891653 104.361022)" fill="#c32f27" stroke-width="0"/><rect width="20" height="68.838463" rx="0" ry="0" transform="matrix(1 0 0 1.71854 151.468357 54.69835)" fill="#db7c26" stroke-width="0"/><g style="mix-blend-mode:difference" transform="matrix(1.099591 0 0 1 -16.602747 0)" opacity="0.81"><line x1="22.83" y1="50" x2="68.3971" y2="50" transform="matrix(0.523389 0.649239 -0.879655 0.709141 143.573508 75.842235)" fill="none" stroke="#5483cc" stroke-width="7" stroke-linecap="round" stroke-miterlimit="10"/><line x1="22.83" y1="50" x2="68.3971" y2="50" transform="matrix(0.612466 -0.565979 0.766846 0.829832 83.064095 125.238103)" fill="none" stroke="#5483cc" stroke-width="7" stroke-linecap="round" stroke-miterlimit="10"/><line x1="22.83" y1="50" x2="68.3971" y2="50" transform="matrix(0.347077 -0.320733 -0.766846 -0.829832 216.575866 187.594177)" fill="none" stroke="#5483cc" stroke-width="7" stroke-linecap="round" stroke-miterlimit="10"/><line x1="22.83" y1="50" x2="68.3971" y2="50" transform="matrix(0.517882 0.192286 -0.393289 1.059244 170.490704 70.666277)" fill="none" stroke="#5483cc" stroke-width="7" stroke-linecap="round" stroke-miterlimit="10"/><path d="M44.92,26.92L21.66,67.22c-1.041244,1.81171-1.038969,4.040804.005971,5.850385s2.97442,2.925812,5.064029,2.929615h46.54c2.097583.003896,4.037275-1.11366,5.085963-2.930285s1.046414-4.055225-.005963-5.869715L55.08,26.92c-1.045448-1.818068-2.98278-2.938836-5.08-2.938836s-4.034552,1.120768-5.08,2.938836Z" transform="matrix(0.201964 0.193773 -0.297018 0.309574 213.018121 92.455278)" fill="#5483cc"/></g><path d="M106.045306,53.18887v124.107362h92.699402" transform="translate(0 -2)" fill="none" stroke="#283618" stroke-width="0.6"/></svg>
